<?xml version="1.0" encoding="UTF-8"?>
<svg width="30px" height="44px" viewBox="0 0 30 44" version="1.1" xmlns="http://www.w3.org/2000/svg" xmlns:xlink="http://www.w3.org/1999/xlink">
    <!-- Generator: Sketch 63.1 (92452) - https://sketch.com -->
    <title>LIS_icon</title>
    <desc>Created with Sketch.</desc>
    <g id="01-Home" stroke="none" stroke-width="1" fill="none" fill-rule="evenodd">
        <g id="Home-Zeplin" transform="translate(-804.000000, -2111.000000)">
            <g id="Locations" transform="translate(0.000000, 1544.000000)">
                <g id="Stuttgart" transform="translate(104.000000, 448.000000)">
                    <g id="Text" transform="translate(547.000000, 49.000000)">
                        <g id="STR_icon-Copy" transform="translate(4.000000, 64.000000)">
                            <g id="LIS_icon" transform="translate(139.300000, 0.000000)">
                                <g transform="translate(11.000000, 7.000000)">
                                    <path d="M2.352,4.81796949 C3.51273046,3.74947464 5.63696713,2.06818946 8.7431176,1.00436053 C10.7022118,0.332987014 14.9217589,-0.733952522 19.6561928,0.745142957 C20.5597429,1.02717168 23.7621388,2.06663415 26.5227524,4.86411021 C26.6305683,4.97350003 26.7183988,5.06578149 26.7762513,5.12799371 C26.9408678,5.34262586 27.1370402,5.64591042 27.291664,6.03784739 C27.5067699,6.5837596 27.5504222,7.07160708 27.552,7.392" id="Stroke-4" stroke="#FFFFFF" stroke-width="1.26"></path>
                                    <path d="M5.04,31.416 C5.04,32.0659087 4.51390872,32.592 3.864,32.592 C3.21409128,32.592 2.688,32.0659087 2.688,31.416 C2.688,30.7666227 3.21409128,30.24 3.864,30.24 C4.51390872,30.24 5.04,30.7666227 5.04,31.416" id="Fill-6" fill="#FFFFFF"></path>
                                    <path d="M15.792,31.416 C15.792,32.0659087 15.2659087,32.592 14.616,32.592 C13.9660913,32.592 13.44,32.0659087 13.44,31.416 C13.44,30.7666227 13.9660913,30.24 14.616,30.24 C15.2659087,30.24 15.792,30.7666227 15.792,31.416" id="Fill-8" fill="#FFFFFF"></path>
                                    <line x1="1.68" y1="42" x2="6.384" y2="37.632" id="Stroke-10" stroke="#FFFFFF" stroke-width="1.26" stroke-linecap="round"></line>
                                    <line x1="9.072" y1="40.32" x2="12.096" y2="37.296" id="Stroke-12" stroke="#FFFFFF" stroke-width="1.26" stroke-linecap="round"></line>
                                    <path d="M19.488,32.867608 L19.488,8.0089975 C19.488,7.33427271 19.2190691,6.69026456 18.7397393,6.20921078 C17.3576453,4.82227649 14.1905882,2.28164612 9.55021154,2.35349181 C5.2193691,2.4201313 2.25163731,4.72127602 0.859524312,6.0931123 C0.302679114,6.64132619 0.000527315529,7.39154102 0.000527315529,8.1677869 L0.000527315529,9.73329418 C0.000527315529,17.4650363 0.000527315529,25.1967785 0,32.928" id="Stroke-14" stroke="#FFFFFF" stroke-width="1.26" stroke-linecap="round"></path>
                                    <path d="M0,33.2436379 L1.62646534,34.8675851 C1.67542075,34.916449 1.74208344,34.944 1.81082933,34.944 L17.2198047,34.9429603 C17.2880298,34.9429603 17.3536509,34.916449 17.4020855,34.8686247 L27.4744005,25.0053809 C27.5243975,24.9570368 27.552,24.8899788 27.552,24.8198018 L27.5509584,7.392" id="Stroke-16" stroke="#FFFFFF" stroke-width="1.26" stroke-linecap="round"></path>
                                    <polyline id="Stroke-18" stroke="#FFFFFF" stroke-width="1.26" stroke-linecap="round" points="19.152 23.972592 0 23.972592 0 24.411408"></polyline>
                                    <path d="M4.704,24.192 L4.704,11.6652133 C4.04915453,11.4105953 2.93746494,11.0712799 1.52690538,11.0886402 C0.963855684,11.0949531 0.451507148,11.1580815 0,11.2469874" id="Stroke-20" stroke="#FFFFFF" stroke-width="1.26"></path>
                                    <path d="M14.112,24.192 L14.112,11.6652133 C14.7740104,11.4105953 15.8987802,11.0712799 17.3264765,11.0886402 C18.1709988,11.0986356 18.9021262,11.2312053 19.488,11.3900785" id="Stroke-22" stroke="#FFFFFF" stroke-width="1.26"></path>
                                    <path d="M14.112,24.192 L14.112,11.6406909 C13.2602178,11.2896422 11.6620874,10.752 9.57625969,10.752 C7.48991264,10.752 5.89178222,11.2896422 5.04,11.6406909" id="Stroke-24" stroke="#FFFFFF" stroke-width="1.26"></path>
                                </g>
                            </g>
                        </g>
                    </g>
                </g>
            </g>
        </g>
    </g>
</svg>