<?xml version="1.0" encoding="UTF-8"?>
<svg width="79px" height="103px" viewBox="0 0 79 103" version="1.1" xmlns="http://www.w3.org/2000/svg" xmlns:xlink="http://www.w3.org/1999/xlink">
    <!-- Generator: Sketch 62 (91390) - https://sketch.com -->
    <title>o-left</title>
    <desc>Created with Sketch.</desc>
    <defs>
        <polygon id="path-1" points="0 0 115.64 0 51.76 92.0684211 51.76 117.6 0 116.568421"></polygon>
    </defs>
    <g id="05-Jobs" stroke="none" stroke-width="1" fill="none" fill-rule="evenodd">
        <g id="Jobs-MQ1-SeeMore" transform="translate(-24.000000, -3818.000000)">
            <g id="1" transform="translate(14.000000, 3692.000000)">
                <g id="o-left" transform="translate(0.000000, 115.000000)">
                    <mask id="mask-2" fill="white">
                        <use xlink:href="#path-1"></use>
                    </mask>
                    <use id="Mask" fill="#D8D8D8" opacity="0" xlink:href="#path-1"></use>
                    <path d="M89.986867,43.7830052 C93.2686101,49.2364767 95.2906687,55.9883938 95.2906687,63 C95.2906687,82.9960622 79.3843125,99.3564767 59.9488204,99.3564767 C40.5108039,99.3564767 24.6069722,82.9960622 24.6069722,63 C24.6069722,43.0039378 40.5108039,26.6435233 59.9488204,26.6435233 C66.5097821,26.6435233 72.5709091,28.4613472 77.8696619,31.8373057 L87.4624493,21.7094301 C82.66858,18.3334715 77.114861,15.7365803 71.053734,14.1784456 C67.5220736,13.3993782 63.735447,12.88 59.9488204,12.88 C56.1621938,12.88 52.6254846,13.3993782 49.0912998,14.1784456 C27.6337491,19.372228 11.48,39.108601 11.48,63 C11.48,86.1123316 26.8764237,105.589016 47.5766491,111.302176 C51.6157175,112.340933 55.6573103,113.12 60.1987378,113.12 C64.4927724,113.12 68.7842825,112.600622 72.8208264,111.302176 C93.5235763,105.589016 108.92,86.1123316 108.92,63 C108.670083,51.8333679 105.38834,41.9651813 99.5796544,33.6551295 L89.986867,43.7830052 Z" id="Fill-34" stroke="#00ADEF" stroke-width="2" mask="url(#mask-2)"></path>
                </g>
            </g>
        </g>
    </g>
</svg>